A classic of both feminist and experimental filmmaking, Chantal Akerman's marathon dissection of the life of Belgian housewife/mother/prostitute Jeanne Dielman (Delphine Seyrig) stays on the surface of the details of Jeanne's humdrum daily life, as if it were a real-life, real-time documentary of an ordinary life, in the tradition of Agnès Varda's earlier New Wave landmark, Cleo From 5 to 7 (1961). Jeanne feeds her son, fixes potatoes, does the marketing, entertains gentlemen -- but things slowly, almost imperceptibly start to go wrong, first those potatoes, and then, finally, something more shocking. Akerman sets out to capture the rhythm of daily life, even as that pace sets us up, after several hours, for the almost tossed-off, blink-and-you'll-miss-it climax. 

   General
      Complete name : jeannedielman.avi
      Format : AVI
      Format/Info : Audio Video Interleave
      File size : 1.81 GiB
      Duration : 3h 13mn
      Overall bit rate : 1 339 Kbps
   Video #0
      ID : 0
      Format : MPEG-4 Visual
      Format profile : Simple@L3
      Format settings, BVOP : No
      Format settings, QPel : No
      Format settings, GMC : No warppoints
      Format settings, Matrix : Default (H.263)
      Codec ID : XVID
      Codec ID/Hint : XviD
      Duration : 3h 13mn
      Bit rate : 1 070 Kbps
      Width : 624 pixels
      Height : 384 pixels
      Display aspect ratio : 1.625
      Frame rate : 25.000 fps
      Resolution : 24 bits
      Colorimetry : 4:2:0
      Scan type : Progressive
      Bits/(Pixel*Frame) : 0.179
      Stream size : 1.44 GiB (80%)
      Writing library : XviD 1.1.2 (UTC 2006-11-01)
   Audio #1
      ID : 1
      Format : MPEG Audio
      Format version : Version 1
      Format profile : Layer 3
      Codec ID : 55
      Codec ID/Hint : MP3
      Duration : 3h 13mn
      Bit rate mode : Constant
      Bit rate : 256 Kbps
      Channel(s) : 2 channels
      Sampling rate : 48.0 KHz
      Resolution : 16 bits
      Video delay : 24ms
      Stream size : 354 MiB (19%)
      Alignment : Split accross interleaves
      Interleave, duration : 24 ms (0.60 video frame)
 
http://www.imdb.com/title/tt0073198/

French audio; English and Spanish subtitles

Chantal Akerman - Jeanne Dielman (1975)